<svg id="visual" viewBox="0 0 600 900" width="600" height="900" xmlns="http://www.w3.org/2000/svg" xmlns:xlink="http://www.w3.org/1999/xlink" version="1.1"><rect x="0" y="0" width="600" height="900" fill="#880022"></rect><defs><linearGradient id="grad1_0" x1="0%" y1="100%" x2="100%" y2="0%"><stop offset="30%" stop-color="#101010" stop-opacity="1"></stop><stop offset="70%" stop-color="#101010" stop-opacity="1"></stop></linearGradient></defs><defs><linearGradient id="grad1_1" x1="0%" y1="100%" x2="100%" y2="0%"><stop offset="30%" stop-color="#101010" stop-opacity="1"></stop><stop offset="70%" stop-color="#880022" stop-opacity="1"></stop></linearGradient></defs><defs><linearGradient id="grad2_0" x1="0%" y1="100%" x2="100%" y2="0%"><stop offset="30%" stop-color="#101010" stop-opacity="1"></stop><stop offset="70%" stop-color="#101010" stop-opacity="1"></stop></linearGradient></defs><defs><linearGradient id="grad2_1" x1="0%" y1="100%" x2="100%" y2="0%"><stop offset="30%" stop-color="#880022" stop-opacity="1"></stop><stop offset="70%" stop-color="#101010" stop-opacity="1"></stop></linearGradient></defs><g transform="translate(600, 900)"><path d="M-540.8 0C-500.9 -48.6 -461 -97.2 -430.8 -140C-400.6 -182.8 -380.2 -219.9 -359.2 -261C-338.2 -302 -316.7 -347.1 -286.3 -394C-255.8 -440.9 -216.3 -489.6 -167.1 -514.4C-117.9 -539.1 -59 -540 0 -540.8L0 0Z" fill="#4b1619"></path><path d="M-270.4 0C-250.5 -24.3 -230.5 -48.6 -215.4 -70C-200.3 -91.4 -190.1 -110 -179.6 -130.5C-169.1 -151 -158.4 -173.6 -143.1 -197C-127.9 -220.4 -108.2 -244.8 -83.6 -257.2C-59 -269.6 -29.5 -270 0 -270.4L0 0Z" fill="#101010"></path></g><g transform="translate(0, 0)"><path d="M540.8 0C502.9 46.9 465 93.9 450.8 146.5C436.6 199.1 446.2 257.4 429.6 312.1C413 366.8 370.3 417.9 317.9 437.5C265.5 457.2 203.2 445.5 148.6 457.5C94 469.4 47 505.1 0 540.8L0 0Z" fill="#4b1619"></path><path d="M270.4 0C251.5 23.5 232.5 46.9 225.4 73.2C218.3 99.5 223.1 128.7 214.8 156.1C206.5 183.4 185.2 208.9 158.9 218.8C132.7 228.6 101.6 222.7 74.3 228.7C47 234.7 23.5 252.6 0 270.4L0 0Z" fill="#101010"></path></g></svg>